<svg width="448" height="320" viewBox="0 0 448 320" fill="none" xmlns="http://www.w3.org/2000/svg">
<path d="M96 0C42.98 0 0 42.1 0 96C0 149.9 42.98 192 96 192C107.28 192 117.95 189.695 128 186.121V192C128 227.3 99.3 256 64 256C46.33 256 32 270.33 32 288C32 305.67 46.33 320 64 320C134.58 320 192 262.58 192 192V96C192 42.1 149 0 96 0ZM448 96C448 42.98 405.02 0 352 0C298.98 0 256 42.98 256 96C256 149.02 298.98 192 352 192C363.28 192 373.95 189.695 384 186.121V192C384 227.3 355.3 256 320 256C302.33 256 288 270.33 288 288C288 305.67 302.33 320 320 320C390.58 320 448 262.58 448 192V96Z" fill="black" fill-opacity="0.1"/>
</svg>
